<svg xmlns="http://www.w3.org/2000/svg" viewBox="0 0 48 48" fill="none">
  <rect width="48" height="48" rx="12" fill="#5BC8FF" fill-opacity="0.08"/>
  <path d="M24 38C24 38 10 30 10 18C10 13.6 13.6 10 18 10C20.4 10 22.6 11 24 12.7C25.4 11 27.6 10 30 10C34.4 10 38 13.6 38 18C38 30 24 38 24 38Z" stroke="#5BC8FF" stroke-width="1.5" fill="#5BC8FF" fill-opacity="0.07" stroke-linejoin="round"/>
  <path d="M24 38V22M24 22C24 22 18 19 16 15" stroke="#5BC8FF" stroke-width="1.5" stroke-linecap="round"/>
  <path d="M24 27C24 27 30 24 32 20" stroke="#5BC8FF" stroke-width="1" stroke-linecap="round" stroke-opacity="0.6"/>
</svg>